<?xml version="1.0" encoding="UTF-8" standalone="no"?>
<svg
   viewBox="0 0 48 48"
   width="32px"
   height="32px"
   fill="#2D2D36"
   version="1.1"
   id="svg1"
   sodipodi:docname="c-sharp.svg"
   inkscape:version="1.3.2 (091e20e, 2023-11-25)"
   xmlns:inkscape="http://www.inkscape.org/namespaces/inkscape"
   xmlns:sodipodi="http://sodipodi.sourceforge.net/DTD/sodipodi-0.dtd"
   xmlns="http://www.w3.org/2000/svg"
   xmlns:svg="http://www.w3.org/2000/svg">
  <defs
     id="defs1" />
  <sodipodi:namedview
     id="namedview1"
     pagecolor="#ffffff"
     bordercolor="#111111"
     borderopacity="1"
     inkscape:showpageshadow="0"
     inkscape:pageopacity="0"
     inkscape:pagecheckerboard="1"
     inkscape:deskcolor="#d1d1d1"
     inkscape:zoom="10.755919"
     inkscape:cx="27.008385"
     inkscape:cy="23.661391"
     inkscape:window-width="1440"
     inkscape:window-height="900"
     inkscape:window-x="0"
     inkscape:window-y="0"
     inkscape:window-maximized="0"
     inkscape:current-layer="svg1" />
  <path
     d="M 11.5,6 C 8.4818182,6 6,8.4818182 6,11.5 v 17.058594 c -0.028688,2.028484 3.0286878,2.028484 3,0 V 11.5 C 9,10.118182 10.118182,9 11.5,9 h 25 c 1.381818,0 2.5,1.118182 2.5,2.5 v 1.244141 c -0.02869,2.028484 3.028688,2.028484 3,0 V 11.5 C 42,8.4818182 39.518182,6 36.5,6 Z M 40.476562,17.095703 C 39.648901,17.108633 38.988127,17.789511 39,18.617188 V 36.5 c 0,1.381818 -1.118182,2.5 -2.5,2.5 h -25 C 10.118182,39 9,37.881818 9,36.5 v -1.755859 c 0.028688,-2.028484 -3.0286878,-2.028484 -3,0 V 36.5 c 0,3.018182 2.4818182,5.5 5.5,5.5 h 25 C 39.518182,42 42,39.518182 42,36.5 V 18.617188 c 0.01214,-0.846037 -0.677418,-1.534707 -1.523438,-1.521485 z"
     id="path1"
     sodipodi:nodetypes="ssccssssccsssscssssccsssscs" />
  <text
     xml:space="preserve"
     style="font-style:normal;font-variant:normal;font-weight:bold;font-stretch:normal;font-size:20px;font-family:Arial;-inkscape-font-specification:'Arial, Bold';font-variant-ligatures:normal;font-variant-caps:normal;font-variant-numeric:normal;font-variant-east-asian:normal;fill:#2d2d36;fill-opacity:1;stroke-width:5.67;stroke-miterlimit:35.4;paint-order:stroke fill markers"
     x="11.452759"
     y="31.774002"
     id="text1"><tspan
       sodipodi:role="line"
       id="tspan1"
       style="font-style:normal;font-variant:normal;font-weight:bold;font-stretch:normal;font-size:20px;font-family:Arial;-inkscape-font-specification:'Arial, Bold';font-variant-ligatures:normal;font-variant-caps:normal;font-variant-numeric:normal;font-variant-east-asian:normal;fill:#2d2d36;fill-opacity:1;stroke-width:5.67"
       x="11.452759"
       y="31.774002">C</tspan></text>
  <rect
     style="fill:#2d2d36;fill-opacity:1;stroke-width:2.79915;stroke-miterlimit:35.4;paint-order:stroke fill markers"
     id="rect1"
     width="2.167552"
     height="9.3570795"
     x="27.878576"
     y="19.521437"
     ry="1.083776"
     rx="0" />
  <rect
     style="fill:#2d2d36;fill-opacity:1;stroke-width:2.79915;stroke-miterlimit:35.4;paint-order:stroke fill markers"
     id="rect1-3"
     width="2.167552"
     height="9.3570795"
     x="31.478575"
     y="19.521437"
     ry="1.083776"
     rx="0" />
  <rect
     style="fill:#2d2d36;fill-opacity:1;stroke-width:2.79915;stroke-miterlimit:35.4;paint-order:stroke fill markers"
     id="rect1-3-8"
     width="2.167552"
     height="9.3570795"
     x="-23.544489"
     y="26.078575"
     ry="1.083776"
     rx="0"
     transform="rotate(-90)" />
  <rect
     style="fill:#2d2d36;fill-opacity:1;stroke-width:2.79915;stroke-miterlimit:35.4;paint-order:stroke fill markers"
     id="rect1-3-8-7"
     width="2.167552"
     height="9.3570795"
     x="-27.265989"
     y="26.078575"
     ry="1.083776"
     rx="0"
     transform="rotate(-90)" />
</svg>
